# xmcd
#
# Track frame offsets:
#	150
#	16094
#	29786
#	46529
#	64284
#	83363
#	104756
#	124644
#	141229
#	167812
#	191320
#
# Disc length: 2745 seconds
# Revision: 0
# Processed by: cddbd v1.5.2PL0 Copyright (c) Steve Scherf et al.
# Submitted via: dBpowerAMP V12.0
#
DISCID=8b0ab70b
DTITLE=Jordan Tice - Horse County
DYEAR=2016
DGENRE=Countr
TTITLE0=Chicken Dog
TTITLE1=Poor Me
TTITLE2=A Cool Dog
TTITLE3=Horse County
TTITLE4=Runnin' Back To You
TTITLE5=Craig
TTITLE6=Various Sauces
TTITLE7=Way Downtown
TTITLE8=Live on the River 'til I Die
TTITLE9=Horse County Rag
TTITLE10=Didn't Think I Was Gonna
EXTD=
EXTT0=
EXTT1=
EXTT2=
EXTT3=
EXTT4=
EXTT5=
EXTT6=
EXTT7=
EXTT8=
EXTT9=
EXTT10=
PLAYORDER=
